<?xml version="1.0" encoding="UTF-8"?>
<svg xmlns="http://www.w3.org/2000/svg" version="1.1" xmlns:xlink="http://www.w3.org/1999/xlink" viewBox="0 0 3853.2 4558.1">
  <defs>
    <style>
      .cls-1 {
        stroke: url(#linear-gradient-74);
      }

      .cls-1, .cls-2, .cls-3, .cls-4, .cls-5, .cls-6, .cls-7, .cls-8, .cls-9, .cls-10, .cls-11, .cls-12, .cls-13, .cls-14, .cls-15, .cls-16, .cls-17, .cls-18, .cls-19, .cls-20, .cls-21, .cls-22, .cls-23, .cls-24, .cls-25, .cls-26, .cls-27, .cls-28, .cls-29, .cls-30, .cls-31, .cls-32, .cls-33, .cls-34, .cls-35, .cls-36, .cls-37, .cls-38, .cls-39, .cls-40, .cls-41, .cls-42, .cls-43, .cls-44, .cls-45, .cls-46, .cls-47, .cls-48, .cls-49, .cls-50, .cls-51, .cls-52, .cls-53, .cls-54, .cls-55, .cls-56, .cls-57, .cls-58, .cls-59, .cls-60, .cls-61, .cls-62, .cls-63, .cls-64, .cls-65, .cls-66, .cls-67, .cls-68, .cls-69, .cls-70, .cls-71, .cls-72, .cls-73, .cls-74, .cls-75, .cls-76, .cls-77, .cls-78, .cls-79, .cls-80, .cls-81, .cls-82, .cls-83, .cls-84, .cls-85 {
        fill: none;
        stroke-miterlimit: 10;
      }

      .cls-1, .cls-2, .cls-4, .cls-5, .cls-7, .cls-8, .cls-9, .cls-10, .cls-11, .cls-12, .cls-14, .cls-15, .cls-16, .cls-18, .cls-21, .cls-22, .cls-23, .cls-24, .cls-25, .cls-26, .cls-27, .cls-29, .cls-32, .cls-33, .cls-35, .cls-36, .cls-40, .cls-41, .cls-43, .cls-44, .cls-47, .cls-48, .cls-49, .cls-51, .cls-52, .cls-55, .cls-58, .cls-59, .cls-60, .cls-61, .cls-62, .cls-63, .cls-64, .cls-65, .cls-66, .cls-67, .cls-69, .cls-71, .cls-72, .cls-74, .cls-80, .cls-81, .cls-82, .cls-84 {
        stroke-width: 1.2px;
      }

      .cls-2 {
        stroke: url(#linear-gradient-39);
      }

      .cls-3 {
        stroke: url(#linear-gradient-9);
      }

      .cls-3, .cls-6, .cls-13, .cls-19, .cls-20, .cls-28, .cls-30, .cls-31, .cls-34, .cls-37, .cls-38, .cls-39, .cls-42, .cls-45, .cls-46, .cls-50, .cls-53, .cls-54, .cls-56, .cls-57, .cls-68, .cls-70, .cls-73, .cls-75, .cls-76, .cls-77, .cls-78, .cls-79, .cls-83, .cls-85 {
        stroke-width: 1.3px;
      }

      .cls-4 {
        stroke: url(#linear-gradient-43);
      }

      .cls-5 {
        stroke: url(#linear-gradient-81);
      }

      .cls-6 {
        stroke: url(#linear-gradient-22);
      }

      .cls-7 {
        stroke: url(#linear-gradient-63);
      }

      .cls-8 {
        stroke: url(#linear-gradient-34);
      }

      .cls-9 {
        stroke: url(#linear-gradient-85);
      }

      .cls-10 {
        stroke: url(#linear-gradient-60);
      }

      .cls-11 {
        stroke: url(#linear-gradient-76);
      }

      .cls-12 {
        stroke: url(#linear-gradient-46);
      }

      .cls-13 {
        stroke: url(#linear-gradient-25);
      }

      .cls-14 {
        stroke: url(#linear-gradient-70);
      }

      .cls-15 {
        stroke: url(#linear-gradient-40);
      }

      .cls-16 {
        stroke: url(#linear-gradient-67);
      }

      .cls-17 {
        stroke: url(#linear-gradient);
      }

      .cls-18 {
        stroke: url(#linear-gradient-32);
      }

      .cls-19 {
        stroke: url(#linear-gradient-16);
      }

      .cls-20 {
        stroke: url(#linear-gradient-21);
      }

      .cls-21 {
        stroke: url(#linear-gradient-36);
      }

      .cls-22 {
        stroke: url(#linear-gradient-59);
      }

      .cls-23 {
        stroke: url(#linear-gradient-53);
      }

      .cls-24 {
        stroke: url(#linear-gradient-57);
      }

      .cls-25 {
        stroke: url(#linear-gradient-56);
      }

      .cls-26 {
        stroke: url(#linear-gradient-35);
      }

      .cls-27 {
        stroke: url(#linear-gradient-69);
      }

      .cls-28 {
        stroke: url(#linear-gradient-29);
      }

      .cls-29 {
        stroke: url(#linear-gradient-41);
      }

      .cls-30 {
        stroke: url(#linear-gradient-23);
      }

      .cls-31 {
        stroke: url(#linear-gradient-3);
      }

      .cls-32 {
        stroke: url(#linear-gradient-38);
      }

      .cls-33 {
        stroke: url(#linear-gradient-51);
      }

      .cls-34 {
        stroke: url(#linear-gradient-2);
      }

      .cls-35 {
        stroke: url(#linear-gradient-68);
      }

      .cls-36 {
        stroke: url(#linear-gradient-78);
      }

      .cls-37 {
        stroke: url(#linear-gradient-18);
      }

      .cls-38 {
        stroke: url(#linear-gradient-14);
      }

      .cls-39 {
        stroke: url(#linear-gradient-19);
      }

      .cls-40 {
        stroke: url(#linear-gradient-55);
      }

      .cls-41 {
        stroke: url(#linear-gradient-75);
      }

      .cls-42 {
        stroke: url(#linear-gradient-11);
      }

      .cls-43 {
        stroke: url(#linear-gradient-71);
      }

      .cls-44 {
        stroke: url(#linear-gradient-52);
      }

      .cls-45 {
        stroke: url(#linear-gradient-7);
      }

      .cls-46 {
        stroke: url(#linear-gradient-5);
      }

      .cls-47 {
        stroke: url(#linear-gradient-42);
      }

      .cls-48 {
        stroke: url(#linear-gradient-72);
      }

      .cls-49 {
        stroke: url(#linear-gradient-62);
      }

      .cls-50 {
        stroke: url(#linear-gradient-28);
      }

      .cls-51 {
        stroke: url(#linear-gradient-47);
      }

      .cls-52 {
        stroke: url(#linear-gradient-54);
      }

      .cls-53 {
        stroke: url(#linear-gradient-8);
      }

      .cls-54 {
        stroke: url(#linear-gradient-6);
      }

      .cls-55 {
        stroke: url(#linear-gradient-65);
      }

      .cls-56 {
        stroke: url(#linear-gradient-4);
      }

      .cls-57 {
        stroke: url(#linear-gradient-15);
      }

      .cls-58 {
        stroke: url(#linear-gradient-84);
      }

      .cls-59 {
        stroke: url(#linear-gradient-58);
      }

      .cls-60 {
        stroke: url(#linear-gradient-33);
      }

      .cls-61 {
        stroke: url(#linear-gradient-64);
      }

      .cls-62 {
        stroke: url(#linear-gradient-83);
      }

      .cls-63 {
        stroke: url(#linear-gradient-45);
      }

      .cls-64 {
        stroke: url(#linear-gradient-50);
      }

      .cls-86 {
        isolation: isolate;
        opacity: .5;
      }

      .cls-65 {
        stroke: url(#linear-gradient-44);
      }

      .cls-66 {
        stroke: url(#linear-gradient-80);
      }

      .cls-67 {
        stroke: url(#linear-gradient-77);
      }

      .cls-68 {
        stroke: url(#linear-gradient-12);
      }

      .cls-69 {
        stroke: url(#linear-gradient-66);
      }

      .cls-70 {
        stroke: url(#linear-gradient-27);
      }

      .cls-71 {
        stroke: url(#linear-gradient-82);
      }

      .cls-72 {
        stroke: url(#linear-gradient-61);
      }

      .cls-73 {
        stroke: url(#linear-gradient-10);
      }

      .cls-74 {
        stroke: url(#linear-gradient-79);
      }

      .cls-75 {
        stroke: url(#linear-gradient-31);
      }

      .cls-76 {
        stroke: url(#linear-gradient-30);
      }

      .cls-77 {
        stroke: url(#linear-gradient-26);
      }

      .cls-78 {
        stroke: url(#linear-gradient-20);
      }

      .cls-79 {
        stroke: url(#linear-gradient-24);
      }

      .cls-80 {
        stroke: url(#linear-gradient-73);
      }

      .cls-81 {
        stroke: url(#linear-gradient-37);
      }

      .cls-87 {
        clip-path: url(#clippath);
      }

      .cls-82 {
        stroke: url(#linear-gradient-48);
      }

      .cls-83 {
        stroke: url(#linear-gradient-13);
      }

      .cls-84 {
        stroke: url(#linear-gradient-49);
      }

      .cls-85 {
        stroke: url(#linear-gradient-17);
      }

      .cls-88 {
        mix-blend-mode: hard-light;
      }
    </style>
    <linearGradient id="linear-gradient" x1="-18.2" y1="2271.7" x2="3842" y2="2271.7" gradientUnits="userSpaceOnUse">
      <stop offset="0" stop-color="#167f4c"/>
      <stop offset=".5" stop-color="#06616d"/>
      <stop offset="1" stop-color="#690e39"/>
    </linearGradient>
    <clipPath id="clippath">
      <rect class="cls-17" x="-17.7" y="-10.9" width="3859.2" height="4565.2"/>
    </clipPath>
    <linearGradient id="linear-gradient-2" x1="-11.1" y1="-3136.8" x2="3835.3" y2="-3136.8" gradientTransform="translate(0 3478)" xlink:href="#linear-gradient"/>
    <linearGradient id="linear-gradient-3" x1="-11" y1="-3113.1" x2="3835.5" y2="-3113.1" gradientTransform="translate(0 3478)" xlink:href="#linear-gradient"/>
    <linearGradient id="linear-gradient-4" x1="-10.9" y1="-3089.3" x2="3835.6" y2="-3089.3" gradientTransform="translate(0 3478)" xlink:href="#linear-gradient"/>
    <linearGradient id="linear-gradient-5" x1="-10.7" y1="-3065.5" x2="3835.8" y2="-3065.5" gradientTransform="translate(0 3478)" xlink:href="#linear-gradient"/>
    <linearGradient id="linear-gradient-6" x1="-10.6" y1="-3041.8" x2="3835.9" y2="-3041.8" gradientTransform="translate(0 3478)" xlink:href="#linear-gradient"/>
    <linearGradient id="linear-gradient-7" x1="-10.4" y1="-3018" x2="3836.1" y2="-3018" gradientTransform="translate(0 3478)" xlink:href="#linear-gradient"/>
    <linearGradient id="linear-gradient-8" x1="-10.2" y1="-2994.3" x2="3836.2" y2="-2994.3" gradientTransform="translate(0 3478)" xlink:href="#linear-gradient"/>
    <linearGradient id="linear-gradient-9" x1="-10" y1="-2970.5" x2="3836.3" y2="-2970.5" gradientTransform="translate(0 3478)" xlink:href="#linear-gradient"/>
    <linearGradient id="linear-gradient-10" x1="-9.9" y1="-2946.8" x2="3836.4" y2="-2946.8" gradientTransform="translate(0 3478)" xlink:href="#linear-gradient"/>
    <linearGradient id="linear-gradient-11" x1="-9.7" y1="-2923" x2="3836.5" y2="-2923" gradientTransform="translate(0 3478)" xlink:href="#linear-gradient"/>
    <linearGradient id="linear-gradient-12" x1="-9.6" y1="-2899.3" x2="3836.7" y2="-2899.3" gradientTransform="translate(0 3478)" xlink:href="#linear-gradient"/>
    <linearGradient id="linear-gradient-13" x1="-9.4" y1="-2875.6" x2="3836.8" y2="-2875.6" gradientTransform="translate(0 3478)" xlink:href="#linear-gradient"/>
    <linearGradient id="linear-gradient-14" x1="-9.2" y1="-2851.8" x2="3837" y2="-2851.8" gradientTransform="translate(0 3478)" xlink:href="#linear-gradient"/>
    <linearGradient id="linear-gradient-15" x1="-9" y1="-2828" x2="3837" y2="-2828" gradientTransform="translate(0 3478)" xlink:href="#linear-gradient"/>
    <linearGradient id="linear-gradient-16" x1="-8.9" y1="-2804.3" x2="3837.2" y2="-2804.3" gradientTransform="translate(0 3478)" xlink:href="#linear-gradient"/>
    <linearGradient id="linear-gradient-17" x1="-8.7" y1="-2780.6" x2="3837.3" y2="-2780.6" gradientTransform="translate(0 3478)" xlink:href="#linear-gradient"/>
    <linearGradient id="linear-gradient-18" x1="-8.6" y1="-2743.5" x2="3837.5" y2="-2743.5" gradientTransform="translate(0 3478)" xlink:href="#linear-gradient"/>
    <linearGradient id="linear-gradient-19" x1="-8.5" y1="-2699.3" x2="3837.6" y2="-2699.3" gradientTransform="translate(0 3478)" xlink:href="#linear-gradient"/>
    <linearGradient id="linear-gradient-20" x1="-8.3" y1="-2655" x2="3837.9" y2="-2655" gradientTransform="translate(0 3478)" xlink:href="#linear-gradient"/>
    <linearGradient id="linear-gradient-21" x1="-8.1" y1="-2610.7" x2="3838" y2="-2610.7" gradientTransform="translate(0 3478)" xlink:href="#linear-gradient"/>
    <linearGradient id="linear-gradient-22" x1="-7.9" y1="-2566.4" x2="3838.1" y2="-2566.4" gradientTransform="translate(0 3478)" xlink:href="#linear-gradient"/>
    <linearGradient id="linear-gradient-23" x1="-7.8" y1="-2522.2" x2="3838.3" y2="-2522.2" gradientTransform="translate(0 3478)" xlink:href="#linear-gradient"/>
    <linearGradient id="linear-gradient-24" x1="-7.6" y1="-2487.1" x2="3838.4" y2="-2487.1" gradientTransform="translate(0 3478)" xlink:href="#linear-gradient"/>
    <linearGradient id="linear-gradient-25" x1="-7.5" y1="-2459.2" x2="3838.7" y2="-2459.2" gradientTransform="translate(0 3478)" xlink:href="#linear-gradient"/>
    <linearGradient id="linear-gradient-26" x1="-7.3" y1="-2431.3" x2="3838.8" y2="-2431.3" gradientTransform="translate(0 3478)" xlink:href="#linear-gradient"/>
    <linearGradient id="linear-gradient-27" x1="-7.3" y1="-2403.4" x2="3839" y2="-2403.4" gradientTransform="translate(0 3478)" xlink:href="#linear-gradient"/>
    <linearGradient id="linear-gradient-28" x1="-7.1" y1="-2375.6" x2="3839.1" y2="-2375.6" gradientTransform="translate(0 3478)" xlink:href="#linear-gradient"/>
    <linearGradient id="linear-gradient-29" x1="-7" y1="-2347.7" x2="3839.3" y2="-2347.7" gradientTransform="translate(0 3478)" xlink:href="#linear-gradient"/>
    <linearGradient id="linear-gradient-30" x1="-6.8" y1="-2319.8" x2="3839.5" y2="-2319.8" gradientTransform="translate(0 3478)" xlink:href="#linear-gradient"/>
    <linearGradient id="linear-gradient-31" x1="-6.7" y1="-2291.9" x2="3839.7" y2="-2291.9" gradientTransform="translate(0 3478)" xlink:href="#linear-gradient"/>
    <linearGradient id="linear-gradient-32" x1="-6.6" y1="-2264" x2="3839.8" y2="-2264" gradientTransform="translate(0 3478)" xlink:href="#linear-gradient"/>
    <linearGradient id="linear-gradient-33" x1="-6.4" y1="-2236.1" x2="3840" y2="-2236.1" gradientTransform="translate(0 3478)" xlink:href="#linear-gradient"/>
    <linearGradient id="linear-gradient-34" x1="-6.3" y1="-2208.3" x2="3840.1" y2="-2208.3" gradientTransform="translate(0 3478)" xlink:href="#linear-gradient"/>
    <linearGradient id="linear-gradient-35" x1="-6.1" y1="-2180.5" x2="3840.3" y2="-2180.5" gradientTransform="translate(0 3478)" xlink:href="#linear-gradient"/>
    <linearGradient id="linear-gradient-36" x1="-6" y1="-2152.6" x2="3840.5" y2="-2152.6" gradientTransform="translate(0 3478)" xlink:href="#linear-gradient"/>
    <linearGradient id="linear-gradient-37" x1="-5.9" y1="-2124.6" x2="3840.6" y2="-2124.6" gradientTransform="translate(0 3478)" xlink:href="#linear-gradient"/>
    <linearGradient id="linear-gradient-38" x1="-5.8" y1="-2096.8" x2="3840.8" y2="-2096.8" gradientTransform="translate(0 3478)" xlink:href="#linear-gradient"/>
    <linearGradient id="linear-gradient-39" x1="-5.6" y1="-2068.9" x2="3840.9" y2="-2068.9" gradientTransform="translate(0 3478)" xlink:href="#linear-gradient"/>
    <linearGradient id="linear-gradient-40" x1="-5.5" y1="-2041" x2="3841.1" y2="-2041" gradientTransform="translate(0 3478)" xlink:href="#linear-gradient"/>
    <linearGradient id="linear-gradient-41" x1="-5.3" y1="-2013.2" x2="3841.2" y2="-2013.2" gradientTransform="translate(0 3478)" xlink:href="#linear-gradient"/>
    <linearGradient id="linear-gradient-42" x1="-5.2" y1="-1985.3" x2="3841.4" y2="-1985.3" gradientTransform="translate(0 3478)" xlink:href="#linear-gradient"/>
    <linearGradient id="linear-gradient-43" x1="-5.1" y1="-1957.4" x2="3841.6" y2="-1957.4" gradientTransform="translate(0 3478)" xlink:href="#linear-gradient"/>
    <linearGradient id="linear-gradient-44" x1="-17.4" y1="-817" x2="3828.8" y2="-817" gradientTransform="translate(0 3478)" xlink:href="#linear-gradient"/>
    <linearGradient id="linear-gradient-45" x1="-17.4" y1="-782.5" x2="3828.9" y2="-782.5" gradientTransform="translate(0 3478)" xlink:href="#linear-gradient"/>
    <linearGradient id="linear-gradient-46" x1="-17.4" y1="-748.1" x2="3829" y2="-748.1" gradientTransform="translate(0 3478)" xlink:href="#linear-gradient"/>
    <linearGradient id="linear-gradient-47" x1="-17.5" y1="-713.8" x2="3828.9" y2="-713.8" gradientTransform="translate(0 3478)" xlink:href="#linear-gradient"/>
    <linearGradient id="linear-gradient-48" x1="-17.5" y1="-679.4" x2="3829" y2="-679.4" gradientTransform="translate(0 3478)" xlink:href="#linear-gradient"/>
    <linearGradient id="linear-gradient-49" x1="-17.5" y1="-645.2" x2="3828.9" y2="-645.2" gradientTransform="translate(0 3478)" xlink:href="#linear-gradient"/>
    <linearGradient id="linear-gradient-50" x1="-17.5" y1="-611.1" x2="3829" y2="-611.1" gradientTransform="translate(0 3478)" xlink:href="#linear-gradient"/>
    <linearGradient id="linear-gradient-51" x1="-17.5" y1="-577.3" x2="3829.1" y2="-577.3" gradientTransform="translate(0 3478)" xlink:href="#linear-gradient"/>
    <linearGradient id="linear-gradient-52" x1="-17.5" y1="-543.7" x2="3829.2" y2="-543.7" gradientTransform="translate(0 3478)" xlink:href="#linear-gradient"/>
    <linearGradient id="linear-gradient-53" x1="-17.5" y1="-510.7" x2="3829.1" y2="-510.7" gradientTransform="translate(0 3478)" xlink:href="#linear-gradient"/>
    <linearGradient id="linear-gradient-54" x1="-17.5" y1="-478.1" x2="3828.9" y2="-478.1" gradientTransform="translate(0 3478)" xlink:href="#linear-gradient"/>
    <linearGradient id="linear-gradient-55" x1="-17.5" y1="-446" x2="3829.2" y2="-446" gradientTransform="translate(0 3478)" xlink:href="#linear-gradient"/>
    <linearGradient id="linear-gradient-56" x1="-17.5" y1="-414.7" x2="3829.1" y2="-414.7" gradientTransform="translate(0 3478)" xlink:href="#linear-gradient"/>
    <linearGradient id="linear-gradient-57" x1="-17.5" y1="-383.9" x2="3829.2" y2="-383.9" gradientTransform="translate(0 3478)" xlink:href="#linear-gradient"/>
    <linearGradient id="linear-gradient-58" x1="-17.5" y1="-353.6" x2="3829.2" y2="-353.6" gradientTransform="translate(0 3478)" xlink:href="#linear-gradient"/>
    <linearGradient id="linear-gradient-59" x1="-17.5" y1="-323.6" x2="3829.3" y2="-323.6" gradientTransform="translate(0 3478)" xlink:href="#linear-gradient"/>
    <linearGradient id="linear-gradient-60" x1="-17.5" y1="-294.1" x2="3829.2" y2="-294.1" gradientTransform="translate(0 3478)" xlink:href="#linear-gradient"/>
    <linearGradient id="linear-gradient-61" x1="-17.5" y1="-264.8" x2="3829.4" y2="-264.8" gradientTransform="translate(0 3478)" xlink:href="#linear-gradient"/>
    <linearGradient id="linear-gradient-62" x1="-17.5" y1="-235.8" x2="3829.2" y2="-235.8" gradientTransform="translate(0 3478)" xlink:href="#linear-gradient"/>
    <linearGradient id="linear-gradient-63" x1="-17.5" y1="-207.1" x2="3829.4" y2="-207.1" gradientTransform="translate(0 3478)" xlink:href="#linear-gradient"/>
    <linearGradient id="linear-gradient-64" x1="-17.5" y1="-178.5" x2="3829.4" y2="-178.5" gradientTransform="translate(0 3478)" xlink:href="#linear-gradient"/>
    <linearGradient id="linear-gradient-65" x1="-17.5" y1="-150.3" x2="3829.5" y2="-150.3" gradientTransform="translate(0 3478)" xlink:href="#linear-gradient"/>
    <linearGradient id="linear-gradient-66" x1="-17.5" y1="-121.7" x2="3829.5" y2="-121.7" gradientTransform="translate(0 3478)" xlink:href="#linear-gradient"/>
    <linearGradient id="linear-gradient-67" x1="-17.5" y1="-93.8" x2="3829.6" y2="-93.8" gradientTransform="translate(0 3478)" xlink:href="#linear-gradient"/>
    <linearGradient id="linear-gradient-68" x1="-17.5" y1="-65.9" x2="3829.6" y2="-65.9" gradientTransform="translate(0 3478)" xlink:href="#linear-gradient"/>
    <linearGradient id="linear-gradient-69" x1="-17.5" y1="-38.3" x2="3829.6" y2="-38.3" gradientTransform="translate(0 3478)" xlink:href="#linear-gradient"/>
    <linearGradient id="linear-gradient-70" x1="-17.5" y1="-10.6" x2="3829.5" y2="-10.6" gradientTransform="translate(0 3478)" xlink:href="#linear-gradient"/>
    <linearGradient id="linear-gradient-71" x1="-17.5" y1="17.1" x2="3829.6" y2="17.1" gradientTransform="translate(0 3478)" xlink:href="#linear-gradient"/>
    <linearGradient id="linear-gradient-72" x1="-17.5" y1="44.8" x2="3829.6" y2="44.8" gradientTransform="translate(0 3478)" xlink:href="#linear-gradient"/>
    <linearGradient id="linear-gradient-73" x1="-17.6" y1="72.3" x2="3829.6" y2="72.3" gradientTransform="translate(0 3478)" xlink:href="#linear-gradient"/>
    <linearGradient id="linear-gradient-74" x1="-17.6" y1="99.7" x2="3829.7" y2="99.7" gradientTransform="translate(0 3478)" xlink:href="#linear-gradient"/>
    <linearGradient id="linear-gradient-75" x1="-17.6" y1="126.7" x2="3829.7" y2="126.7" gradientTransform="translate(0 3478)" xlink:href="#linear-gradient"/>
    <linearGradient id="linear-gradient-76" x1="-17.6" y1="153.6" x2="3829.8" y2="153.6" gradientTransform="translate(0 3478)" xlink:href="#linear-gradient"/>
    <linearGradient id="linear-gradient-77" x1="-17.6" y1="180.3" x2="3829.6" y2="180.3" gradientTransform="translate(0 3478)" xlink:href="#linear-gradient"/>
    <linearGradient id="linear-gradient-78" x1="-17.6" y1="207" x2="3829.8" y2="207" gradientTransform="translate(0 3478)" xlink:href="#linear-gradient"/>
    <linearGradient id="linear-gradient-79" x1="-17.6" y1="233.8" x2="3829.7" y2="233.8" gradientTransform="translate(0 3478)" xlink:href="#linear-gradient"/>
    <linearGradient id="linear-gradient-80" x1="-17.6" y1="260.6" x2="3829.9" y2="260.6" gradientTransform="translate(0 3478)" xlink:href="#linear-gradient"/>
    <linearGradient id="linear-gradient-81" x1="-17.7" y1="287.1" x2="3829.7" y2="287.1" gradientTransform="translate(0 3478)" xlink:href="#linear-gradient"/>
    <linearGradient id="linear-gradient-82" x1="-17.7" y1="313.7" x2="3829.8" y2="313.7" gradientTransform="translate(0 3478)" xlink:href="#linear-gradient"/>
    <linearGradient id="linear-gradient-83" x1="-17.7" y1="340.3" x2="3829.9" y2="340.3" gradientTransform="translate(0 3478)" xlink:href="#linear-gradient"/>
    <linearGradient id="linear-gradient-84" x1="-17.7" y1="366.8" x2="3830" y2="366.8" gradientTransform="translate(0 3478)" xlink:href="#linear-gradient"/>
    <linearGradient id="linear-gradient-85" x1="-17.8" y1="393.5" x2="3830" y2="393.5" gradientTransform="translate(0 3478)" xlink:href="#linear-gradient"/>
  </defs>
  <!-- Generator: Adobe Illustrator 28.6.0, SVG Export Plug-In . SVG Version: 1.2.0 Build 709)  -->
  <g>
    <g id="Layer_1">
      <g class="cls-86">
        <g id="Layer_2">
          <g>
            <g class="cls-87">
              <g class="cls-88">
                <path class="cls-34" d="M3835.1,62.2s-1694,630.6-2203.7,630.6S-10.8-10.5-10.8-10.5"/>
                <path class="cls-31" d="M3835.3,110.6s-1674.5,589.5-2186.5,589.5S-10.7,29.7-10.7,29.7"/>
                <path class="cls-56" d="M3835.4,159.1s-1655.1,548.5-2169.3,548.5S-10.6,69.8-10.6,69.8"/>
                <path class="cls-46" d="M3835.6,207.5s-1635.7,507.4-2152.1,507.4S-10.4,110-10.4,110"/>
                <path class="cls-54" d="M3835.7,255.9s-1616.3,466.3-2135,466.3S-10.3,150.1-10.3,150.1"/>
                <path class="cls-45" d="M3835.9,304.3s-1596.8,425.3-2117.8,425.3S-10.1,190.3-10.1,190.3"/>
                <path class="cls-53" d="M3836,352.7s-1577.4,384.2-2100.6,384.2S-10,230.4-10,230.4"/>
                <path class="cls-3" d="M3836.2,401.2s-1558,343.1-2083.4,343.1S-9.8,270.6-9.8,270.6"/>
                <path class="cls-73" d="M3836.3,449.6s-1538.6,302-2066.2,302S-9.7,310.7-9.7,310.7"/>
                <path class="cls-42" d="M3836.4,498s-1519.1,261-2049,261S-9.5,350.9-9.5,350.9"/>
                <path class="cls-68" d="M3836.6,546.4s-1499.7,219.9-2031.9,219.9S-9.4,391-9.4,391"/>
                <path class="cls-83" d="M3836.7,594.8s-1480.3,178.8-2014.7,178.8S-9.2,431.2-9.2,431.2"/>
                <path class="cls-38" d="M3836.9,643.2s-1460.9,137.8-1997.5,137.8S-9.1,471.4-9.1,471.4"/>
                <path class="cls-57" d="M3837,691.7s-1441.4,96.7-1980.3,96.7S-8.9,511.5-8.9,511.5"/>
                <path class="cls-19" d="M3837.2,740.1s-1422,55.6-1963.1,55.6S-8.8,551.7-8.8,551.7"/>
                <path class="cls-85" d="M3837.3,788.5s-1402.6,14.5-1945.9,14.5S-8.6,591.8-8.6,591.8"/>
                <path class="cls-37" d="M3837.5,836.9s-1383.2-26.5-1928.7-26.5S-8.5,632-8.5,632"/>
                <path class="cls-39" d="M3837.6,885.3s-1363.7-67.6-1911.6-67.6S-8.4,672.1-8.4,672.1"/>
                <path class="cls-78" d="M3837.8,933.8s-1344.3-108.7-1894.4-108.7S-8.2,712.2-8.2,712.2"/>
                <path class="cls-20" d="M3837.9,982.2s-1324.9-149.8-1877.2-149.8S-8.1,752.4-8.1,752.4"/>
                <path class="cls-6" d="M3838,1030.6s-1305.5-190.8-1860-190.8S-7.9,792.6-7.9,792.6"/>
                <path class="cls-30" d="M3838.2,1079s-1286-231.9-1842.8-231.9S-7.8,832.7-7.8,832.7"/>
                <path class="cls-79" d="M3838.3,1127.4s-1266.6-273-1825.6-273S-7.6,872.9-7.6,872.9"/>
                <path class="cls-13" d="M3838.5,1175.8s-1247.2-314-1808.5-314S-7.5,913-7.5,913"/>
                <path class="cls-77" d="M3838.6,1224.3s-1227.8-355.1-1791.3-355.1S-7.3,953.2-7.3,953.2"/>
                <path class="cls-70" d="M3838.8,1272.7s-1208.3-396.2-1774.1-396.2S-7.2,993.3-7.2,993.3"/>
                <path class="cls-50" d="M3838.9,1321.1s-1188.9-437.3-1756.9-437.3S-7,1033.5-7,1033.5"/>
                <path class="cls-28" d="M3839.1,1369.5s-1169.5-478.3-1739.7-478.3S-6.9,1073.6-6.9,1073.6"/>
                <path class="cls-76" d="M3839.2,1417.9s-1150.1-519.4-1722.5-519.4S-6.7,1113.8-6.7,1113.8"/>
                <path class="cls-75" d="M3839.4,1466.4s-1130.6-560.5-1705.4-560.5S-6.6,1153.9-6.6,1153.9"/>
                <path class="cls-18" d="M3839.5,1514.8s-1111.2-601.6-1688.2-601.6S-6.5,1194.1-6.5,1194.1"/>
                <path class="cls-60" d="M3839.7,1563.2s-1091.8-642.6-1671-642.6S-6.3,1234.2-6.3,1234.2"/>
                <path class="cls-8" d="M3839.8,1611.6s-1072.4-683.7-1653.8-683.7S-6.2,1274.4-6.2,1274.4"/>
                <path class="cls-26" d="M3840,1660s-1053-724.8-1636.6-724.8S-6,1314.5-6,1314.5"/>
                <path class="cls-21" d="M3840.1,1708.4s-1033.5-765.8-1619.4-765.8S-5.9,1354.7-5.9,1354.7"/>
                <path class="cls-81" d="M3840.2,1756.9s-1014.1-806.9-1602.2-806.9S-5.7,1394.8-5.7,1394.8"/>
                <path class="cls-32" d="M3840.4,1805.3s-994.7-848-1585.1-848S-5.6,1435-5.6,1435"/>
                <path class="cls-2" d="M3840.5,1853.7s-975.3-889.1-1567.9-889.1S-5.4,1475.1-5.4,1475.1"/>
                <path class="cls-15" d="M3840.7,1902.1s-955.8-930.1-1550.7-930.1S-5.3,1515.3-5.3,1515.3"/>
                <path class="cls-29" d="M3840.8,1950.5s-936.4-971.2-1533.5-971.2S-5.1,1555.4-5.1,1555.4"/>
                <path class="cls-47" d="M3841,1998.9s-917-1012.3-1516.3-1012.3S-5,1595.6-5,1595.6"/>
                <path class="cls-4" d="M3841.1,2047.4s-897.5-1053.3-1499.1-1053.3S-4.9,1635.7-4.9,1635.7"/>
                <path class="cls-65" d="M-17.4,1939.9c269.4-20.3,406.1,11.3,665.5,86.4,164.2,47.5,323.4,115.5,463.6,212.9,107.1,74.4,201.7,164.9,295.8,255,89.8,86,179.6,172,264.3,262.9,87.4,93.7,169.6,193,268.2,274.9,230.4,191.5,539.7,303.9,834.8,344.2,163.5,22.3,333.9,15.1,490.8-38.8,163.7-56.3,421-252.1,562.9-348.9"/>
                <path class="cls-63" d="M-17.4,1985.1c263.9-20.6,404,5.8,663.6,75.5,146.9,39.1,289.6,94.8,417.6,173.2,15.6,9.6,31.1,19.4,46.4,29.5,107.6,71.9,203.2,159.8,298.2,248.1,38.3,35.6,76.6,71.4,114.5,107.7,51.8,49.6,102.7,100.2,151.8,152.6,74.5,79.5,145.1,163.2,224.7,237.2,14.1,13.1,28.4,25.9,43.2,38.3,195.3,164.4,446.9,272.5,699.1,327.9,43.8,9.6,87.7,17.6,131.2,24,163,24,333.1,18.5,490.2-33.1,67.3-21.9,149.9-66.6,233.8-118.3,121.8-75,246.6-164.8,331.7-221.8"/>
                <path class="cls-12" d="M-17.4,2030.3c258.3-20.9,401.8.9,661.7,64.6,147.3,36.1,290.4,88.5,417.7,164,15.7,9.3,31.2,18.7,46.6,28.5,108.2,69.4,204.8,154.6,300.7,241.1,38.7,34.9,77.3,70,115.5,105.9,52.2,49,103.4,99.4,152.6,151.6,74.7,79.2,145.3,163.1,224.6,237.5,14,13.2,28.3,26,43,38.5,194.4,165.6,444,276.2,695.2,334.2,43.6,10.1,87.3,18.5,130.8,25.4,162.5,25.7,332.2,21.4,489.6-27.4,67.7-21,150.5-64,234.6-114.2,122.2-72.7,247.3-160.5,333.5-217.2"/>
                <path class="cls-51" d="M-17.4,2075.5c252.7-21.2,399.6-4.3,659.8,53.7,147.8,32.9,291.1,82.3,417.9,154.8,15.7,9,31.4,18,46.8,27.4,108.8,66.9,206.4,149.4,303.1,234.1,39,34.1,78,68.7,116.5,104.2,52.6,48.5,104,98.5,153.5,150.7,75,79,145.6,163,224.5,237.8,13.9,13.2,28.2,26.2,42.7,38.7,193.4,166.9,441.1,279.9,691.2,340.6,43.5,10.5,87,19.4,130.3,26.7,162.1,27.3,331.3,24.5,489-21.7,68.2-20,151.1-61.4,235.4-110,122.5-70.5,248-156.1,335.3-212.5"/>
                <path class="cls-82" d="M-17.4,2120.7c247.1-21.5,397.5-9.5,657.9,42.8,148.3,29.8,291.9,76,418,145.6,15.7,8.7,31.5,17.3,47,26.4,109.4,64.4,208,144.3,305.6,227.2,39.4,33.4,78.7,67.4,117.6,102.5,53,47.9,104.7,97.7,154.4,149.7,75.2,78.8,145.9,162.9,224.4,238.1,13.9,13.3,28,26.3,42.5,39,192.5,168.1,438.2,283.5,687.3,346.9,43.3,11,86.6,20.3,129.8,28.1,161.6,29,330.5,27.7,488.4-16,68.6-19,151.8-58.8,236.1-105.9,122.9-68.2,248.7-151.8,337.1-207.9"/>
                <path class="cls-84" d="M-17.4,2166c241.5-21.8,395.4-14.8,656,31.9,148.8,26.6,292.7,69.7,418.2,136.4,15.8,8.4,31.7,16.6,47.2,25.3,110,61.9,209.6,139.1,308,220.2,39.8,32.7,79.5,66.1,118.6,100.8,53.5,47.4,105.4,96.9,155.2,148.7,75.4,78.6,146.2,162.8,224.3,238.4,13.8,13.4,27.9,26.5,42.3,39.2,191.5,169.3,435.3,287.2,683.3,353.2,43.1,11.5,86.3,21.3,129.3,29.4,161.1,30.7,329.7,30.9,487.8-10.3,69.1-18,152.4-56.2,236.9-101.8,123.2-66,249.5-147.4,338.9-203.2"/>
                <path class="cls-64" d="M-17.4,2211.2c235.9-22.1,393.4-20,654.2,21,149.3,23.5,293.5,63.5,418.3,127.2,15.8,8.1,31.8,15.9,47.4,24.3,110.5,59.4,211.1,133.9,310.5,213.2,40.2,32,80.2,64.8,119.6,99.1,53.9,46.8,106.1,96,156.1,147.8,75.7,78.4,146.4,162.7,224.2,238.7,13.8,13.4,27.8,26.6,42.1,39.4,190.5,170.6,432.3,290.9,679.4,359.6,42.9,11.9,85.9,22.1,128.8,30.8,160.7,32.3,328.8,34.1,487.2-4.6,69.6-17,153-53.7,237.7-97.6,123.5-63.7,250.2-143.1,340.6-198.6"/>
                <path class="cls-33" d="M-17.4,2256.4c230.3-22.4,391.3-25.3,652.3,10.1,149.8,20.3,294.4,57.1,418.4,118,15.9,7.8,31.9,15.2,47.7,23.2,111.1,56.9,212.7,128.8,312.9,206.2,40.5,31.3,80.9,63.5,120.6,97.4,54.3,46.2,106.8,95.2,157,146.8,75.9,78.2,146.7,162.6,224.1,239,13.7,13.5,27.6,26.7,41.9,39.7,189.6,171.8,429.4,294.6,675.4,365.9,42.7,12.4,85.6,23,128.3,32.1,160.2,34,328,37.3,486.6,1.1,70-16,153.6-51.1,238.5-93.5,123.9-61.4,250.9-138.7,342.5-193.9"/>
                <path class="cls-44" d="M-17.4,2301.6c224.7-22.7,389.2-30.6,650.4-.8,150.3,17.1,295.2,50.8,418.6,108.8,15.9,7.5,32.1,14.5,47.9,22.2,111.7,54.4,214.3,123.6,315.4,199.3,40.9,30.5,81.6,62.2,121.7,95.6,54.7,45.7,107.5,94.4,157.8,145.9,76.2,78,147,162.5,224,239.3,13.6,13.6,27.5,26.9,41.7,39.9,188.6,173,426.5,298.2,671.5,372.3,42.5,12.8,85.2,24,127.9,33.5,159.7,35.7,327.2,40.5,486,6.8,70.5-15,154.3-48.5,239.2-89.4,124.2-59.2,251.6-134.4,344.2-189.3"/>
                <path class="cls-23" d="M-17.4,2346.8c219.2-22.9,387.2-35.9,648.5-11.7,150.8,13.9,296.1,44.5,418.7,99.6,16,7.2,32.2,13.8,48.1,21.1,112.3,51.9,215.9,118.4,317.8,192.3,41.3,29.8,82.3,60.9,122.7,93.9,55.1,45.1,108.2,93.5,158.7,144.9,76.4,77.8,147.2,162.4,223.9,239.6,13.6,13.6,27.4,27,41.5,40.1,187.7,174.3,423.6,301.9,667.5,378.6,42.3,13.3,84.9,24.9,127.4,34.8,159.3,37.3,326.4,43.8,485.4,12.4,71-14,154.8-46.1,240-85.2,124.4-57.2,252.3-130,346-184.6"/>
                <path class="cls-52" d="M-17.4,2392c213.6-23.2,385.1-41.2,646.6-22.7,151.3,10.7,297,38.1,418.8,90.4,16,6.9,32.3,13.1,48.3,20.1,112.8,49.4,217.4,113.3,320.2,185.3,41.6,29.1,83,59.6,123.7,92.2,55.6,44.6,108.9,92.7,159.6,144,76.6,77.6,147.5,162.3,223.8,239.9,13.5,13.7,27.2,27.2,41.2,40.4,186.7,175.5,420.7,305.6,663.5,384.9,42.2,13.8,84.5,25.8,126.9,36.2,158.8,39,325.7,47,484.8,18.1,71.5-13,155.5-43.5,240.8-81.1,124.7-55,253-125.7,347.8-180"/>
                <path class="cls-40" d="M-17.4,2437.2c208-23.5,383.1-46.5,644.7-33.6,151.9,7.5,297.9,31.7,419,81.3,16.1,6.6,32.5,12.4,48.5,19,113.4,46.9,219,108.1,322.7,178.4,42,28.3,83.7,58.3,124.8,90.5,56,44,109.6,91.9,160.5,143,76.9,77.3,147.8,162.3,223.7,240.2,13.4,13.8,27.1,27.3,41,40.6,185.7,176.7,417.7,309.3,659.6,391.3,42,14.2,84.2,26.7,126.4,37.5,158.3,40.6,324.9,50.3,484.2,23.8,72-11.9,156.1-40.9,241.6-77,125.1-52.8,253.7-121.3,349.6-175.3"/>
                <path class="cls-25" d="M-17.4,2482.4c202.4-23.8,381.1-51.9,642.8-44.5,152.4,4.3,298.9,25.3,419.1,72.1,16.2,6.3,32.6,11.7,48.8,18,114,44.3,220.6,102.9,325.1,171.4,42.4,27.6,84.5,57,125.8,88.8,56.4,43.4,110.3,91,161.3,142,77.1,77.1,148,162.2,223.6,240.5,13.4,13.9,26.9,27.5,40.8,40.8,184.8,178,414.8,312.9,655.6,397.6,41.8,14.7,83.8,27.6,125.9,38.8,157.9,42.3,324.1,53.6,483.6,29.5,72.4-10.9,156.7-38.4,242.4-72.8,125.4-50.5,254.4-116.9,351.4-170.7"/>
                <path class="cls-24" d="M-17.4,2527.6c196.8-24.1,379-52.2,640.9-55.4,152.9-1.9,299.8,18.9,419.2,62.9,16.2,6,32.8,11,49,16.9,114.6,41.8,222.2,97.8,327.6,164.4,42.7,26.9,85.2,55.6,126.8,87,56.8,42.9,111,90.2,162.2,141.1,77.4,76.9,148.3,162.1,223.5,240.8,13.3,13.9,26.8,27.6,40.6,41.1,183.8,179.2,411.9,316.6,651.7,404,41.6,15.1,83.5,28.5,125.5,40.2,157.4,44,323.3,56.8,483,35.2,72.9-9.9,157.3-35.8,243.1-68.7,125.8-48.3,255.1-112.6,353.2-166"/>
                <path class="cls-59" d="M-17.4,2572.9c191.2-24.4,377-62.6,639-66.3,153.5-2.1,300.8,12.4,419.4,53.7,16.3,5.7,32.9,10.3,49.2,15.9,115.1,39.3,223.7,92.6,330,157.5,43.1,26.2,85.9,54.3,127.8,85.3,57.3,42.3,111.7,89.4,163.1,140.1,77.6,76.7,148.6,162,223.4,241.1,13.2,14,26.7,27.8,40.4,41.3,182.9,180.4,409,320.3,647.7,410.3,41.4,15.6,83.1,29.4,125,41.5,156.9,45.6,322.5,60.1,482.4,40.9,73.4-8.8,158-33.2,243.9-64.6,126.1-46,255.9-108.2,355-161.4"/>
                <path class="cls-22" d="M-17.4,2618.1c185.6-24.7,375-68,637.1-77.2,154-5.4,301.8,6,419.5,44.5,16.4,5.4,33,9.6,49.4,14.8,115.7,36.8,225.3,87.4,332.5,150.5,43.5,25.5,86.6,53,128.9,83.6,57.7,41.8,112.4,88.5,163.9,139.2,77.8,76.5,148.9,161.9,223.3,241.4,13.2,14.1,26.5,27.9,40.2,41.5,181.9,181.7,406.1,324,643.8,416.7,41.2,16,82.8,30.3,124.5,42.9,156.5,47.3,321.8,63.5,481.8,46.6,73.9-7.8,158.6-30.6,244.7-60.4,126.4-43.8,256.6-103.9,356.8-156.7"/>
                <path class="cls-10" d="M-17.4,2663.3c180.1-25,373-73.4,635.2-88.1,154.6-8.6,302.8-.5,419.7,35.3,16.4,5,33.2,8.9,49.6,13.8,116.3,34.3,226.9,82.3,334.9,143.5,43.8,24.7,87.3,51.7,129.9,81.9,58.1,41.2,113,87.7,164.8,138.2,78.1,76.3,149.1,161.8,223.1,241.7,13.1,14.2,26.4,28.1,40,41.8,180.9,182.9,403.1,327.6,639.8,423,41,16.5,82.5,31.2,124,44.2,156,49,321,66.8,481.2,52.3,74.4-6.7,159.2-28,245.5-56.3,126.8-41.6,257.3-99.5,358.6-152.1"/>
                <path class="cls-72" d="M-17.4,2708.5c174.5-25.2,370.9-78.9,633.3-99,155.1-11.9,303.8-7.1,419.8,26.1,16.5,4.7,33.3,8.2,49.9,12.7,116.9,31.8,228.5,77.1,337.4,136.5,44.2,24,88,50.4,130.9,80.2,58.5,40.6,113.7,86.9,165.7,137.3,78.3,76.1,149.4,161.7,223,242,13,14.2,26.3,28.2,39.8,42,180,184.1,400.2,331.3,635.9,429.4,40.8,17,82.1,32.1,123.5,45.6,155.5,50.6,320.3,70.1,480.6,58,74.9-5.7,159.9-25.5,246.3-52.2,127.1-39.3,258-95.2,360.4-147.4"/>
                <path class="cls-49" d="M-17.4,2753.7c168.9-25.5,368.9-84.3,631.4-109.9,155.6-15.2,304.9-13.6,419.9,17,16.6,4.4,33.5,7.5,50.1,11.7,117.4,29.3,230,71.9,339.8,129.6,44.6,23.3,88.7,49.1,132,78.4,59,40.1,114.4,86,166.5,136.3,78.6,75.9,149.7,161.6,222.9,242.3,13,14.3,26.1,28.4,39.5,42.2,179,185.4,397.3,335,631.9,435.7,40.7,17.4,81.7,33,123.1,46.9,155.1,52.3,319.5,73.5,480,63.7,75.4-4.6,160.5-22.9,247-48.1,127.5-37.1,258.7-90.8,362.2-142.8"/>
                <path class="cls-7" d="M-17.4,2798.9c163.3-25.8,366.9-89.8,629.5-120.8,156.2-18.4,305.9-20.2,420.1,7.8,16.6,4.1,33.6,6.8,50.3,10.6,118,26.8,231.6,66.8,342.3,122.6,45,22.6,89.5,47.8,133,76.7,59.4,39.5,115.1,85.2,167.4,135.4,78.8,75.7,149.9,161.5,222.8,242.6,12.9,14.3,26,28.5,39.3,42.5,178.1,186.6,394.4,338.6,628,442,40.5,17.9,81.4,33.9,122.6,48.3,154.6,54,318.7,76.8,479.4,69.4,75.9-3.5,161.1-20.3,247.8-43.9,127.8-34.8,259.4-86.5,364-138.1"/>
                <path class="cls-61" d="M-17.4,2844.1c157.7-26.1,364.9-95.3,627.7-131.7,156.7-21.7,307-26.8,420.2-1.4,16.7,3.7,33.7,6.1,50.5,9.6,118.6,24.3,233.2,61.6,344.7,115.6,45.3,21.8,90.2,46.5,134,75,59.8,39,115.8,84.4,168.3,134.4,79,75.4,150.2,161.4,222.7,242.9,12.8,14.4,25.9,28.7,39.1,42.7,177.1,187.8,391.4,342.3,624,448.4,40.3,18.3,81.1,34.9,122.1,49.6,154.1,55.6,318,80.2,478.8,75.1,76.4-2.4,161.8-17.7,248.6-39.8,128.1-32.6,260.1-82.1,365.8-133.5"/>
                <path class="cls-55" d="M-17.4,2889.3c152.1-26.4,362.9-100.8,625.8-142.6,157.2-25,308.1-33.4,420.3-10.6,16.8,3.4,33.9,5.4,50.7,8.5,119.2,21.8,234.8,56.4,347.2,108.6,45.7,21.1,90.9,45.2,135,73.3,60.2,38.4,116.5,83.5,169.2,133.4,79.3,75.2,150.5,161.3,222.6,243.2,12.8,14.5,25.7,28.8,38.9,42.9,176.1,189.1,388.5,346,620.1,454.7,40.1,18.8,80.7,35.7,121.6,51,153.7,57.3,317.2,83.6,478.2,80.8,76.9-1.4,162.4-15.1,249.4-35.7,128.5-30.4,260.8-77.7,367.6-128.9"/>
                <path class="cls-69" d="M-17.4,2934.6c146.5-26.7,360.8-106.3,623.9-153.5,157.8-28.3,309.2-40.1,420.5-19.8,16.9,3.1,34,4.7,50.9,7.5,119.7,19.3,236.3,51.3,349.6,101.7,46.1,20.4,91.6,43.9,136.1,71.6,60.7,37.8,117.2,82.7,170,132.5,79.5,75,150.7,161.2,222.5,243.5,12.7,14.6,25.6,29,38.7,43.2,175.2,190.3,385.6,349.7,616.1,461.1,39.9,19.2,80.3,36.7,121.1,52.3,153.2,58.9,316.5,82.1,477.6,86.5,77.4,2.1,163-12.5,250.2-31.5,128.8-28.1,261.6-73.4,369.4-124.2"/>
                <path class="cls-16" d="M-17.4,2979.8c140.9-27,358.8-111.8,622-164.5,158.3-31.7,310.3-46.8,420.6-29,17,2.7,34.1,4,51.2,6.4,120.3,16.8,237.9,46.1,352.1,94.7,46.4,19.6,92.3,42.6,137.1,69.9,61.1,37.3,117.9,81.9,170.9,131.5,79.8,74.8,151,161.1,222.4,243.8,12.6,14.6,25.4,29.1,38.5,43.4,174.2,191.5,382.7,353.3,612.2,467.4,39.7,19.7,80,37.6,120.6,53.7,152.7,60.6,315.8,85.6,477,92.2,77.8,3.2,163.7-9.9,250.9-27.4,129.2-25.9,262.3-69,371.2-119.6"/>
                <path class="cls-35" d="M-17.4,3025c135.4-27.3,356.8-117.3,620.1-175.3,158.8-35,311.4-53.5,420.8-38.2,17,2.4,34.3,3.3,51.4,5.4,120.9,14.3,239.5,40.9,354.5,87.7,46.8,18.9,93,41.3,138.1,68.2,61.5,36.7,118.6,81.1,171.8,130.6,80,74.6,151.3,161,222.3,244.1,12.6,14.7,25.3,29.3,38.3,43.6,173.3,192.8,379.8,357,608.2,473.8,39.5,20.2,79.7,38.5,120.2,55,152.3,62.3,315,93.9,476.4,97.9,78.4,1.9,164.3-7.3,251.7-23.3,129.5-23.6,263-64.7,373-114.9"/>
                <path class="cls-27" d="M-17.4,3070.2c129.8-27.6,354.7-122.9,618.2-186.3,159.3-38.3,312.5-60.3,420.9-47.4,17.1,2,34.4,2.6,51.6,4.3,121.5,11.8,241.1,35.8,357,80.8,47.2,18.2,93.8,40,139.2,66.4,61.9,36.1,119.3,80.2,172.6,129.6,80.2,74.4,151.5,160.9,222.2,244.4,12.5,14.8,25.2,29.4,38,43.9,172.3,194,376.8,360.7,604.3,480.1,39.3,20.6,79.3,39.4,119.7,56.4,151.8,63.9,314.2,97.3,475.8,103.6,78.9,3,164.9-4.8,252.5-19.1,129.9-21.3,263.7-60.3,374.8-110.3"/>
                <path class="cls-14" d="M-17.4,3115.4c124.2-27.8,352.7-128.4,616.3-197.2,159.9-41.7,313.5-67.1,421-56.6,17.2,1.7,34.6,1.9,51.8,3.3,122,9.3,242.6,30.6,359.4,73.8,47.5,17.5,94.5,38.6,140.2,64.7,62.3,35.6,120,79.4,173.5,128.7,80.5,74.2,151.8,160.8,222.1,244.7,12.4,14.9,25,29.6,37.8,44.1,171.4,195.2,373.9,364.3,600.3,486.4,39.2,21.1,79,40.3,119.2,57.7,151.3,65.6,313.4,100.8,475.2,109.3,79.4,4.2,165.6-2.2,253.3-15,130.2-19.1,264.4-56,376.6-105.6"/>
                <path class="cls-43" d="M-17.4,3160.6c118.6-28.1,350.6-134,614.4-208.1,160.4-45,314.6-73.9,421.2-65.7,17.3,1.3,34.7,1.3,52,2.2,122.6,6.8,244.2,25.4,361.9,66.8,47.9,16.7,95.2,37.3,141.2,63,62.8,35,120.7,78.5,174.4,127.7,80.7,74,152.1,160.7,222,245,12.4,14.9,24.9,29.7,37.6,44.3,170.4,196.5,371,368,596.4,492.8,39,21.5,78.6,41.2,118.7,59,150.8,67.3,312.7,104.3,474.5,115,79.9,5.3,166.2.4,254.1-10.9,130.6-16.8,265.1-51.6,378.4-101"/>
                <path class="cls-48" d="M-17.4,3205.8c113-28.4,348.6-139.6,612.5-219,160.9-48.4,315.7-80.8,421.3-74.9,17.4,1,34.8.6,52.3,1.2,123.2,4.3,245.8,20.3,364.3,59.9,48.3,16,95.9,36,142.2,61.3,63.2,34.5,121.4,77.7,175.2,126.8,81,73.8,152.4,160.6,221.9,245.3,12.3,15,24.8,29.9,37.4,44.6,169.4,197.7,368.1,371.7,592.4,499.1,38.8,22,78.3,42.1,118.3,60.4,150.4,68.9,311.9,107.7,474,120.7,80.3,6.4,166.8,3,254.8-6.8,130.9-14.5,265.8-47.3,380.2-96.3"/>
                <path class="cls-80" d="M-17.4,3251c107.4-28.7,346.5-145.2,610.6-229.9,161.4-51.7,316.9-78.6,421.4-84.1,17.4-.9,35-.1,52.5.1,123.8,1.8,247.4,15.1,366.7,52.9,48.6,15.3,96.6,34.7,143.3,59.6,63.6,33.9,122.1,76.9,176.1,125.8,81.2,73.6,152.6,160.6,221.8,245.6,12.2,15.1,24.6,30,37.2,44.8,168.5,198.9,365.2,375.4,588.5,505.5,38.6,22.5,77.9,43,117.8,61.8,149.9,70.6,311.1,111.2,473.3,126.3,80.8,7.5,167.5,5.6,255.6-2.6,131.3-12.3,266.5-42.9,382-91.7"/>
                <path class="cls-1" d="M-17.4,3296.2c101.8-29,344.4-150.8,608.7-240.8,161.9-55.1,318.2-86,421.6-93.3,17.5-1.2,35.1-.8,52.7-.9,124.3-.7,248.9,9.9,369.2,45.9,49,14.6,97.3,33.4,144.3,57.8,64,33.4,122.8,76.1,177,124.8,81.4,73.3,152.9,160.5,221.7,245.9,12.2,15.1,24.5,30.2,37,45.1,167.5,200.2,362.2,379,584.5,511.8,38.4,22.9,77.6,43.9,117.3,63.1,149.4,72.3,310.3,114.7,472.7,132.1,81.3,8.7,168.1,8.2,256.4,1.5,131.6-10,267.3-38.5,383.8-87"/>
                <path class="cls-41" d="M-17.4,3341.5c96.3-29.3,342.3-156.4,606.8-251.7,162.4-58.5,319.4-93.5,421.7-102.5,17.6-1.5,35.2-1.5,52.9-2,124.9-3.2,250.5,4.8,371.6,38.9,49.4,13.9,98.1,32.1,145.3,56.1,64.5,32.8,123.4,75.2,177.8,123.9,81.7,73.1,153.2,160.4,221.6,246.2,12.1,15.2,24.4,30.3,36.8,45.3,166.6,201.4,359.3,382.7,580.6,518.2,38.2,23.4,77.2,44.8,116.8,64.4,149,73.9,309.6,118.2,472.2,137.7,81.8,9.8,168.7,10.8,257.2,5.7,132-7.7,268-34.2,385.6-82.4"/>
                <path class="cls-11" d="M-17.4,3386.7c90.7-29.6,340.2-162.1,604.9-262.6,162.9-61.9,320.5-101.1,421.9-111.7,17.6-1.8,35.4-2.2,53.1-3,125.5-5.7,252.1-.4,374.1,32,49.8,13.1,98.8,30.8,146.4,54.4,64.9,32.2,124.1,74.4,178.7,122.9,81.9,72.9,153.4,160.3,221.5,246.5,12,15.3,24.2,30.5,36.6,45.5,165.6,202.6,356.4,386.4,576.6,524.5,38,23.8,76.9,45.7,116.3,65.8,148.5,75.6,308.8,121.7,471.5,143.4,82.3,11,169.4,13.4,258,9.8,132.3-5.4,268.7-29.8,387.4-77.7"/>
                <path class="cls-67" d="M-17.4,3431.9c85.1-29.9,338.1-167.7,603-273.5,163.4-65.3,321.1-115.4,422-120.9,17.8-1,35.5-2.9,53.4-4.1,126.1-8.2,253.7-5.6,376.5,25,50.1,12.4,99.5,29.5,147.4,52.7,65.3,31.7,124.8,73.5,179.6,122,82.2,72.7,153.7,160.2,221.4,246.8,12,15.3,24.1,30.6,36.3,45.8,164.6,203.9,353.5,390,572.6,530.8,37.9,24.3,76.5,46.6,115.8,67.1,148.1,77.2,308,125.3,470.9,149.1,82.8,12.1,170,16,258.7,13.9,132.6-3.2,269.4-25.5,389.2-73.1"/>
                <path class="cls-36" d="M-17.4,3477.1c79.5-30.2,336-173.3,601.2-284.4,163.8-68.6,322.1-122.4,422.1-130.1,17.8-1.4,35.7-3.6,53.6-5.2,126.6-10.7,255.2-10.7,379,18,50.5,11.7,100.2,28.2,148.4,51,65.7,31.1,125.5,72.7,180.5,121,82.4,72.5,154,160.1,221.2,247.1,11.9,15.4,24,30.8,36.1,46,163.7,205.1,350.6,393.7,568.7,537.2,37.7,24.8,76.2,47.6,115.4,68.5,147.6,78.9,307.2,128.8,470.3,154.8,83.2,13.3,170.7,18.8,259.5,18,133-.6,270.1-21.1,391-68.4"/>
                <path class="cls-74" d="M-17.4,3522.3c73.9-30.4,333.9-179,599.3-295.3,164.3-72,323.1-129.5,422.3-139.3,17.9-1.8,35.8-4.3,53.8-6.2,127.2-13.2,256.8-15.9,381.4,11.1,50.9,10.9,100.9,26.9,149.4,49.3,66.2,30.5,126.2,71.9,181.3,120.1,82.6,72.3,154.2,160,221.1,247.4,11.9,15.5,23.8,30.9,35.9,46.2,162.7,206.3,347.6,397.4,564.7,543.5,37.5,25.2,75.8,48.5,114.9,69.8,147.1,80.6,306.4,132.3,469.7,160.5,83.7,14.4,171.3,21.4,260.3,22.2,133.3,1.6,270.8-16.8,392.8-63.8"/>
                <path class="cls-66" d="M-17.4,3567.5c68.3-30.7,331.7-184.6,597.4-306.2,164.8-75.4,324.1-136.5,422.4-148.4,18-2.2,35.9-5,54-7.2,127.8-15.8,258.4-21.1,383.9,4.1,51.2,10.2,101.6,25.6,150.5,47.5,66.6,30,126.9,71,182.2,119.1,82.9,72.1,154.5,159.9,221,247.7,11.8,15.6,23.7,31,35.7,46.5,161.8,207.5,344.7,401.1,560.8,549.9,37.3,25.7,75.5,49.4,114.4,71.2,146.6,82.2,305.6,135.9,469.1,166.2,84.2,15.6,171.9,24,261.1,26.3,133.7,3.8,271.5-12.4,394.6-59.1"/>
                <path class="cls-5" d="M-17.4,3612.7c62.7-31,329.6-190.3,595.5-317.1,165.2-78.8,325.1-143.6,422.5-157.6,18-2.6,36.1-5.7,54.2-8.3,128.4-18.3,260-26.2,386.3-2.9,51.6,9.5,102.3,24.3,151.5,45.8,67,29.4,127.6,70.2,183.1,118.2,83.1,71.9,154.8,159.8,220.9,247.9,11.7,15.6,23.5,31.2,35.5,46.7,160.8,208.8,341.8,404.7,556.8,556.2,37.1,26.1,75.1,50.3,113.9,72.5,146.2,83.9,304.7,139.4,468.5,171.9,84.7,16.8,172.5,26.6,261.8,30.4,134,6.1,272.2-8.1,396.4-54.5"/>
                <path class="cls-71" d="M-17.4,3657.9c57.1-31.3,327.4-195.9,593.6-328,165.7-82.3,326-150.7,422.7-166.8,18.1-3,36.2-6.4,54.5-9.4,128.9-20.8,261.6-31.4,388.8-9.9,52,8.8,103,22.9,152.5,44.1,67.4,28.9,128.3,69.4,183.9,117.2,83.4,71.7,155.1,159.7,220.8,248.2,11.7,15.7,23.4,31.4,35.3,46.9,159.8,210,338.9,408.4,552.9,562.6,36.9,26.6,74.8,51.2,113.4,73.9,145.7,85.6,303.9,143,467.9,177.6,85.1,18,173.2,29.2,262.6,34.6,134.3,8.4,272.9-3.7,398.1-49.8"/>
                <path class="cls-62" d="M-17.4,3703.1c51.6-31.6,325.1-202,591.7-339,166-85.9,327-157.8,422.8-176,18.2-3.5,36.4-7.1,54.7-10.4,129.5-23.3,263.1-36.6,391.2-16.8,52.3,8,103.8,21.6,153.6,42.4,67.9,28.3,129,68.6,184.8,116.3,83.6,71.4,155.3,159.6,220.7,248.5,11.6,15.8,23.3,31.5,35.1,47.2,158.9,211.3,336,412.1,548.9,568.9,36.7,27,74.4,52.1,113,75.2,145.2,87.2,303.1,146.6,467.3,183.3,85.6,19.2,173.8,31.8,263.4,38.7,134.7,10.6,273.7.7,399.9-45.2"/>
                <path class="cls-58" d="M-17.4,3748.4c46-31.9,323-207.4,589.8-349.9,166.5-89.2,327.9-164.9,422.9-185.2,18.2-3.9,36.5-7.8,54.9-11.5,130.1-25.8,264.7-41.7,393.7-23.8,52.7,7.3,104.5,20.3,154.6,40.7,68.3,27.7,129.7,67.7,185.7,115.3,83.8,71.2,155.6,159.5,220.6,248.8,11.5,15.8,23.1,31.7,34.9,47.4,157.9,212.5,333,415.8,545,575.2,36.6,27.5,74.1,53,112.5,76.6,144.8,88.9,302.2,150.3,466.7,189,86,20.4,174.4,34.3,264.2,42.8,135,12.8,274.4,5,401.7-40.6"/>
                <path class="cls-9" d="M-17.4,3793.6c65.7-52.3,765.8-497.2,1011-555.2,200-47.3,415.7-79.9,606.8-4.3,171.5,67.9,299.2,213.8,407.1,363.5,166.1,230.6,349.1,455,575.7,629.2,245.5,188.8,536.7,285.4,843.1,319.6,135.4,15.1,275.1,9.4,403.5-35.9"/>
              </g>
            </g>
            <rect class="cls-17" x="-17.7" y="-10.9" width="3859.2" height="4565.2"/>
          </g>
        </g>
      </g>
    </g>
  </g>
</svg>